<svg width="161" height="78" viewBox="0 0 161 78" fill="none" xmlns="http://www.w3.org/2000/svg">
<g filter="url(#filter0_d_1_59)">
<rect x="6" y="2" width="66" height="66" rx="12" stroke="url(#paint0_linear_1_59)" stroke-width="4"/>
<path d="M51.5173 51.04C49.784 51.04 48.544 50.5467 47.7973 49.56C47.0507 48.5467 46.6773 47.0667 46.6773 45.12C46.6773 43.1733 47.304 38.6933 48.5573 31.68H47.9173C46.2907 33.8133 44.944 36.36 43.8773 39.32C42.8107 42.28 42.1573 44.9467 41.9173 47.32C40.6107 48.5467 39.104 49.16 37.3973 49.16C36.704 49.16 36.0907 48.92 35.5573 48.44C35.0507 47.9333 34.544 47.0667 34.0373 45.84C33.0507 43.36 32.344 38.64 31.9173 31.68H31.2773C29.9707 37.4133 29.3173 41.4533 29.3173 43.8C29.3173 46.1467 29.7173 47.96 30.5173 49.24C28.9173 50.44 27.2507 51.04 25.5173 51.04C23.784 51.04 22.544 50.5467 21.7973 49.56C21.0507 48.5467 20.6773 47.0533 20.6773 45.08C20.6773 43.08 21.5173 37.44 23.1973 28.16L21.0773 23.88C24.0907 21.9333 26.8373 20.96 29.3173 20.96C30.4107 20.96 31.3307 21.08 32.0773 21.32C32.8507 21.5333 33.584 21.96 34.2773 22.6C34.9973 23.24 35.584 24.1333 36.0373 25.28C37.0773 27.8667 37.824 31.64 38.2773 36.6H38.7573C40.144 32.52 42.064 29.0133 44.5173 26.08C45.8507 24.5067 47.4373 23.2667 49.2773 22.36C51.144 21.4533 53.1573 21 55.3173 21C57.3707 21 58.3973 22.24 58.3973 24.72C58.3973 25.5467 57.8773 28.6267 56.8373 33.96C55.824 39.2667 55.3173 42.4267 55.3173 43.44C55.3173 46.0267 55.7173 47.96 56.5173 49.24C54.9173 50.44 53.2507 51.04 51.5173 51.04Z" fill="white"/>
</g>
<path d="M95.7709 30.24C96.5443 29.1733 97.5976 28.3067 98.9309 27.64C100.291 26.9467 101.798 26.6 103.451 26.6C105.398 26.6 107.158 27.0667 108.731 28C110.304 28.9333 111.544 30.2667 112.451 32C113.358 33.7067 113.811 35.6667 113.811 37.88C113.811 40.0933 113.358 42.08 112.451 43.84C111.544 45.5733 110.291 46.9333 108.691 47.92C107.118 48.88 105.371 49.36 103.451 49.36C101.744 49.36 100.224 49.0267 98.8909 48.36C97.5843 47.6933 96.5443 46.84 95.7709 45.8V49H91.2109V19.4H95.7709V30.24ZM109.171 37.88C109.171 36.36 108.851 35.0533 108.211 33.96C107.598 32.84 106.771 32 105.731 31.44C104.718 30.8533 103.624 30.56 102.451 30.56C101.304 30.56 100.211 30.8533 99.1709 31.44C98.1576 32.0267 97.3309 32.88 96.6909 34C96.0776 35.12 95.7709 36.44 95.7709 37.96C95.7709 39.48 96.0776 40.8133 96.6909 41.96C97.3309 43.08 98.1576 43.9333 99.1709 44.52C100.211 45.1067 101.304 45.4 102.451 45.4C103.624 45.4 104.718 45.1067 105.731 44.52C106.771 43.9067 107.598 43.0267 108.211 41.88C108.851 40.7333 109.171 39.4 109.171 37.88ZM127.88 49.36C125.8 49.36 123.92 48.8933 122.24 47.96C120.56 47 119.24 45.6667 118.28 43.96C117.32 42.2267 116.84 40.2267 116.84 37.96C116.84 35.72 117.334 33.7333 118.32 32C119.307 30.2667 120.654 28.9333 122.36 28C124.067 27.0667 125.974 26.6 128.08 26.6C130.187 26.6 132.094 27.0667 133.8 28C135.507 28.9333 136.854 30.2667 137.84 32C138.827 33.7333 139.32 35.72 139.32 37.96C139.32 40.2 138.814 42.1867 137.8 43.92C136.787 45.6533 135.4 47 133.64 47.96C131.907 48.8933 129.987 49.36 127.88 49.36ZM127.88 45.4C129.054 45.4 130.147 45.12 131.16 44.56C132.2 44 133.04 43.16 133.68 42.04C134.32 40.92 134.64 39.56 134.64 37.96C134.64 36.36 134.334 35.0133 133.72 33.92C133.107 32.8 132.294 31.96 131.28 31.4C130.267 30.84 129.174 30.56 128 30.56C126.827 30.56 125.734 30.84 124.72 31.4C123.734 31.96 122.947 32.8 122.36 33.92C121.774 35.0133 121.48 36.36 121.48 37.96C121.48 40.3333 122.08 42.1733 123.28 43.48C124.507 44.76 126.04 45.4 127.88 45.4ZM153.268 37.84L160.388 49H155.228L150.468 41.52L145.988 49H141.228L148.348 38.16L141.228 26.96H146.388L151.148 34.44L155.628 26.96H160.388L153.268 37.84Z" fill="white"/>
<defs>
<filter id="filter0_d_1_59" x="0" y="0" width="78" height="78" filterUnits="userSpaceOnUse" color-interpolation-filters="sRGB">
<feFlood flood-opacity="0" result="BackgroundImageFix"/>
<feColorMatrix in="SourceAlpha" type="matrix" values="0 0 0 0 0 0 0 0 0 0 0 0 0 0 0 0 0 0 127 0" result="hardAlpha"/>
<feOffset dy="4"/>
<feGaussianBlur stdDeviation="2"/>
<feComposite in2="hardAlpha" operator="out"/>
<feColorMatrix type="matrix" values="0 0 0 0 0 0 0 0 0 0 0 0 0 0 0 0 0 0 0.25 0"/>
<feBlend mode="normal" in2="BackgroundImageFix" result="effect1_dropShadow_1_59"/>
<feBlend mode="normal" in="SourceGraphic" in2="effect1_dropShadow_1_59" result="shape"/>
</filter>
<linearGradient id="paint0_linear_1_59" x1="4" y1="5" x2="74" y2="70" gradientUnits="userSpaceOnUse">
<stop stop-color="#326CFF"/>
<stop offset="1" stop-color="#26FFF2"/>
</linearGradient>
</defs>
</svg>
